<svg id="visual" viewBox="0 0 960 300" width="960" height="300" xmlns="http://www.w3.org/2000/svg" xmlns:xlink="http://www.w3.org/1999/xlink" version="1.1"><path d="M0 207L22.8 210.3C45.7 213.7 91.3 220.3 137 220.2C182.7 220 228.3 213 274 214.8C319.7 216.7 365.3 227.3 411.2 228.2C457 229 503 220 548.8 217C594.7 214 640.3 217 686 221.2C731.7 225.3 777.3 230.7 823 230.7C868.7 230.7 914.3 225.3 937.2 222.7L960 220L960 301L937.2 301C914.3 301 868.7 301 823 301C777.3 301 731.7 301 686 301C640.3 301 594.7 301 548.8 301C503 301 457 301 411.2 301C365.3 301 319.7 301 274 301C228.3 301 182.7 301 137 301C91.3 301 45.7 301 22.8 301L0 301Z" fill="#306269"></path><path d="M0 217L22.8 220C45.7 223 91.3 229 137 232.7C182.7 236.3 228.3 237.7 274 237.5C319.7 237.3 365.3 235.7 411.2 237C457 238.3 503 242.7 548.8 242.5C594.7 242.3 640.3 237.7 686 233.5C731.7 229.3 777.3 225.7 823 226C868.7 226.3 914.3 230.7 937.2 232.8L960 235L960 301L937.2 301C914.3 301 868.7 301 823 301C777.3 301 731.7 301 686 301C640.3 301 594.7 301 548.8 301C503 301 457 301 411.2 301C365.3 301 319.7 301 274 301C228.3 301 182.7 301 137 301C91.3 301 45.7 301 22.8 301L0 301Z" fill="#2f6154"></path><path d="M0 257L22.8 253.7C45.7 250.3 91.3 243.7 137 243.5C182.7 243.3 228.3 249.7 274 249.7C319.7 249.7 365.3 243.3 411.2 243C457 242.7 503 248.3 548.8 250.5C594.7 252.7 640.3 251.3 686 251.2C731.7 251 777.3 252 823 253.3C868.7 254.7 914.3 256.3 937.2 257.2L960 258L960 301L937.2 301C914.3 301 868.7 301 823 301C777.3 301 731.7 301 686 301C640.3 301 594.7 301 548.8 301C503 301 457 301 411.2 301C365.3 301 319.7 301 274 301C228.3 301 182.7 301 137 301C91.3 301 45.7 301 22.8 301L0 301Z" fill="#435d3a"></path><path d="M0 259L22.8 261.7C45.7 264.3 91.3 269.7 137 271.8C182.7 274 228.3 273 274 271.7C319.7 270.3 365.3 268.7 411.2 265.5C457 262.3 503 257.7 548.8 259.2C594.7 260.7 640.3 268.3 686 268.5C731.7 268.7 777.3 261.3 823 257.5C868.7 253.7 914.3 253.3 937.2 253.2L960 253L960 301L937.2 301C914.3 301 868.7 301 823 301C777.3 301 731.7 301 686 301C640.3 301 594.7 301 548.8 301C503 301 457 301 411.2 301C365.3 301 319.7 301 274 301C228.3 301 182.7 301 137 301C91.3 301 45.7 301 22.8 301L0 301Z" fill="#5d5427"></path><path d="M0 283L22.8 282C45.7 281 91.3 279 137 276.7C182.7 274.3 228.3 271.7 274 271.5C319.7 271.3 365.3 273.7 411.2 276.3C457 279 503 282 548.8 280.8C594.7 279.7 640.3 274.3 686 274.8C731.7 275.3 777.3 281.7 823 284.2C868.7 286.7 914.3 285.3 937.2 284.7L960 284L960 301L937.2 301C914.3 301 868.7 301 823 301C777.3 301 731.7 301 686 301C640.3 301 594.7 301 548.8 301C503 301 457 301 411.2 301C365.3 301 319.7 301 274 301C228.3 301 182.7 301 137 301C91.3 301 45.7 301 22.8 301L0 301Z" fill="#754728"></path></svg>